<?xml version="1.0" encoding="UTF-8" standalone="no"?>
<!-- Created with Inkscape (http://www.inkscape.org/) -->

<svg
   width="720mm"
   height="720mm"
   viewBox="0 0 720 720"
   version="1.1"
   id="svg1"
   inkscape:version="1.3 (0e150ed6c4, 2023-07-21)"
   sodipodi:docname="logo.svg"
   inkscape:export-filename="logo.png"
   inkscape:export-xdpi="96"
   inkscape:export-ydpi="96"
   xmlns:inkscape="http://www.inkscape.org/namespaces/inkscape"
   xmlns:sodipodi="http://sodipodi.sourceforge.net/DTD/sodipodi-0.dtd"
   xmlns="http://www.w3.org/2000/svg"
   xmlns:svg="http://www.w3.org/2000/svg">
  <sodipodi:namedview
     id="namedview1"
     pagecolor="#ffffff"
     bordercolor="#000000"
     borderopacity="0.25"
     inkscape:showpageshadow="2"
     inkscape:pageopacity="0.0"
     inkscape:pagecheckerboard="0"
     inkscape:deskcolor="#d1d1d1"
     inkscape:document-units="mm"
     inkscape:zoom="0.19165565"
     inkscape:cx="1038.3205"
     inkscape:cy="4067.1903"
     inkscape:window-width="2560"
     inkscape:window-height="1494"
     inkscape:window-x="-11"
     inkscape:window-y="-11"
     inkscape:window-maximized="1"
     inkscape:current-layer="layer1" />
  <defs
     id="defs1">
    <rect
       x="-1946.1988"
       y="3344.5401"
       width="3167.1386"
       height="813.95983"
       id="rect3" />
  </defs>
  <g
     inkscape:label="Layer 1"
     inkscape:groupmode="layer"
     id="layer1">
    <rect
       style="fill:#5b11c3;fill-opacity:1;stroke:none;stroke-width:0.535355"
       id="rect1"
       width="718.55762"
       height="717.86731"
       x="0.9665423"
       y="1.3805151" />
    <path
       id="path1"
       style="fill:#ffffff;fill-opacity:1;stroke:none;stroke-width:0.529167"
       d="M 357.10947 -141.21102 A 169.11298 151.16631 0 0 1 187.84383 -292.10413 L 526.0697 -292.37699 A 169.11298 151.16631 0 0 1 357.10947 -141.21102 z M 398.23564 -197.80033 C 420.30741 -198.46685 421.9081 -253.56385 421.9081 -253.56385 L 371.0249 -252.83211 C 371.0249 -252.83211 376.16387 -197.13381 398.23564 -197.80033 z M 309.44571 -198.17292 C 331.51748 -197.5064 336.65645 -253.20418 336.65645 -253.20418 L 285.77325 -253.93644 C 285.77325 -253.93644 287.37394 -198.83944 309.44571 -198.17292 z "
       transform="scale(1,-1)" />
    <path
       style="fill:none;fill-opacity:1;stroke:#ffffff;stroke-width:28.5955;stroke-dasharray:none;stroke-opacity:1"
       d="m 193.48991,336.0578 c 0,0 320.97329,-50.51641 326.25745,38.4426 5.28416,88.95903 -299.72354,93.67143 -296.57578,44.7977 3.14776,-48.87375 261.47436,-56.09348 262.40482,38.69881 0.93045,94.79229 -228.50775,103.77639 -230.4869,57.38902 -1.97916,-46.38737 206.29447,-39.42883 205.11599,27.97192 -1.17848,67.40075 -111.29558,16.20349 -110.45391,93.05517"
       id="path2"
       sodipodi:nodetypes="czzzzzc" />
    <rect
       style="fill:#ffffff;fill-opacity:1;stroke:none;stroke-width:20;stroke-dasharray:none;stroke-opacity:1"
       id="rect2"
       width="71.260475"
       height="37.582581"
       x="183.1331"
       y="129.02756"
       transform="rotate(20.46894)" />
    <rect
       style="fill:#ffffff;fill-opacity:1;stroke:none;stroke-width:20;stroke-dasharray:none;stroke-opacity:1"
       id="rect2-8"
       width="71.260475"
       height="37.582581"
       x="-483.33664"
       y="382.65445"
       transform="matrix(-0.9368619,0.34969956,0.34969956,0.9368619,0,0)" />
    <rect
       style="fill:#ffffff;fill-opacity:1;stroke:none;stroke-width:20;stroke-dasharray:none;stroke-opacity:1"
       id="rect2-8-4"
       width="71.260475"
       height="37.582581"
       x="53.998951"
       y="339.52963"
       transform="matrix(-0.00722352,0.99997391,0.99997391,0.00722352,0,0)" />
    <rect
       style="fill:#ffffff;fill-opacity:1;stroke:none;stroke-width:17.1335;stroke-dasharray:none;stroke-opacity:1"
       id="rect2-8-4-2"
       width="52.298061"
       height="37.582127"
       x="206.91403"
       y="109.54221"
       transform="matrix(0.53942699,0.84203238,0.83957389,-0.5432455,0,0)" />
    <rect
       style="fill:#ffffff;fill-opacity:1;stroke:none;stroke-width:17.1335;stroke-dasharray:none;stroke-opacity:1"
       id="rect2-8-4-2-5"
       width="52.298061"
       height="37.582127"
       x="-178.01073"
       y="-498.19949"
       transform="matrix(-0.53942699,0.84203238,-0.83957389,-0.5432455,0,0)" />
    <rect
       style="fill:#5b11c3;fill-opacity:1;stroke:none;stroke-width:0.51489"
       id="rect1-6"
       width="1645.8516"
       height="289.90793"
       x="-649.07935"
       y="854.46619"
       inkscape:export-filename=".\banner.png"
       inkscape:export-xdpi="96"
       inkscape:export-ydpi="96" />
    <g
       id="g3"
       transform="translate(-222.26278,0.05276109)">
      <path
         id="path1-6"
         style="fill:#ffffff;fill-opacity:1;stroke:none;stroke-width:0.213702"
         d="m 618.4861,910.9362 a 68.295621,61.047928 0 0 0 -68.35727,60.93759 l 136.5912,0.11021 A 68.295621,61.047928 0 0 0 618.4861,910.9362 Z m 16.60864,22.85337 c 8.9136,0.26916 9.56003,22.51987 9.56003,22.51987 l -20.54898,-0.29549 c 0,0 2.07536,-22.49355 10.98895,-22.22438 z m -35.85747,0.15047 c 8.9136,-0.26916 10.98896,22.22418 10.98896,22.22418 l -20.54899,0.29569 c 0,0 0.64644,-22.25071 9.56003,-22.51987 z" />
      <path
         style="fill:none;fill-opacity:1;stroke:#ffffff;stroke-width:11.5482;stroke-dasharray:none;stroke-opacity:1"
         d="m 552.40897,989.62432 c 0,0 129.62382,-20.40085 131.75781,15.52488 2.13399,35.9258 -121.04219,37.8288 -119.77098,18.0914 1.27121,-19.7375 105.59541,-22.6531 105.97117,15.6284 0.37576,38.2815 -92.28197,41.9097 -93.08124,23.1763 -0.79928,-18.7334 83.31122,-15.9232 82.8353,11.2963 -0.47593,27.2196 -44.94629,6.5437 -44.60639,37.58"
         id="path2-4"
         sodipodi:nodetypes="czzzzzc" />
      <rect
         style="fill:#ffffff;fill-opacity:1;stroke:none;stroke-width:8.07692;stroke-dasharray:none;stroke-opacity:1"
         id="rect2-4"
         width="28.778267"
         height="15.17758"
         x="816.89349"
         y="686.25018"
         transform="rotate(20.46894)" />
      <rect
         style="fill:#ffffff;fill-opacity:1;stroke:none;stroke-width:8.07692;stroke-dasharray:none;stroke-opacity:1"
         id="rect2-8-1"
         width="28.778267"
         height="15.17758"
         x="-340.90652"
         y="1120.3796"
         transform="matrix(-0.9368619,0.34969956,0.34969956,0.9368619,0,0)" />
      <rect
         style="fill:#ffffff;fill-opacity:1;stroke:none;stroke-width:8.07692;stroke-dasharray:none;stroke-opacity:1"
         id="rect2-8-4-0"
         width="28.778267"
         height="15.17758"
         x="872.26776"
         y="617.54242"
         transform="matrix(-0.00722352,0.99997391,0.99997391,0.00722352,0,0)" />
      <rect
         style="fill:#ffffff;fill-opacity:1;stroke:none;stroke-width:6.9193;stroke-dasharray:none;stroke-opacity:1"
         id="rect2-8-4-2-0"
         width="21.120369"
         height="15.177396"
         x="1058.1354"
         y="-17.034122"
         transform="matrix(0.53942699,0.84203238,0.83957389,-0.5432455,0,0)" />
      <rect
         style="fill:#ffffff;fill-opacity:1;stroke:none;stroke-width:6.9193;stroke-dasharray:none;stroke-opacity:1"
         id="rect2-8-4-2-5-1"
         width="21.120369"
         height="15.177396"
         x="387.39081"
         y="-1061.1759"
         transform="matrix(-0.53942699,0.84203238,-0.83957389,-0.5432455,0,0)" />
    </g>
    <text
       xml:space="preserve"
       transform="matrix(0.26458333,0,0,0.26458333,292.669,1.5782647)"
       id="text1"
       style="font-size:666.667px;font-family:sans-serif;-inkscape-font-specification:sans-serif;white-space:pre;shape-inside:url(#rect3);fill:#ffffff;stroke-width:113.386"><tspan
         x="-1946.1992"
         y="3951.1228"
         id="tspan2"><tspan
           style="font-family:Mistral;-inkscape-font-specification:Mistral"
           id="tspan1">Karpiem</tspan></tspan></text>
  </g>
</svg>
