<?xml version="1.0" standalone="no"?>
<!DOCTYPE svg PUBLIC "-//W3C//DTD SVG 20010904//EN"
 "http://www.w3.org/TR/2001/REC-SVG-20010904/DTD/svg10.dtd">
<svg version="1.0" xmlns="http://www.w3.org/2000/svg"
 width="2721.000000pt" height="2721.000000pt" viewBox="0 0 2721.000000 2721.000000"
 preserveAspectRatio="xMidYMid meet">
<metadata>
Created by potrace 1.14, written by Peter Selinger 2001-2017
</metadata>
<g transform="translate(0.000000,2721.000000) scale(0.100000,-0.100000)"
fill="#000000" stroke="none">
<path d="M32 13593 l3 -13568 13580 0 13580 0 3 13568 2 13567 -13585 0
-13585 0 2 -13567z m13937 11470 l263 -6 -6 -1086 c-3 -597 -9 -1200 -12
-1338 l-6 -253 -427 0 c-234 0 -551 3 -705 7 l-278 6 6 601 c3 331 9 933 12
1339 l6 737 442 0 c242 0 560 -3 705 -7z m-4689 -2038 c211 -330 448 -699 526
-821 l141 -221 -590 -382 c-479 -310 -593 -379 -603 -369 -16 17 -1055 1640
-1052 1643 35 30 1184 763 1188 757 4 -4 179 -277 390 -607z m9557 4 c324
-209 587 -385 585 -392 -4 -14 -1030 -1617 -1046 -1634 -8 -10 -146 75 -602
370 l-590 382 60 95 c324 508 1000 1560 1002 1560 2 0 268 -171 591 -381z
m-4992 -1169 c1235 -67 2385 -430 3378 -1068 1480 -951 2438 -2436 2621 -4062
14 -119 36 -453 36 -535 l0 -30 -6387 3 c-3513 1 -6389 5 -6391 7 -7 7 18 418
33 555 69 605 233 1159 505 1715 152 309 268 506 456 772 705 995 1764 1787
2980 2228 883 320 1847 465 2769 415z m-6784 -2494 l236 -88 -109 -291 c-60
-161 -170 -458 -246 -660 -123 -330 -139 -368 -157 -364 -24 5 -2486 925
-2492 931 -2 2 102 289 233 637 130 349 240 646 246 660 l9 26 1022 -382 c562
-210 1128 -421 1258 -469z m15114 657 c67 -170 483 -1298 480 -1301 -3 -3
-568 -216 -1257 -473 -1206 -450 -1253 -467 -1261 -446 -4 12 -115 310 -246
662 -132 352 -236 641 -233 643 87 34 2491 930 2498 931 7 1 15 -7 19 -16z
m-7675 -4443 c2039 -43 3429 -284 4374 -757 851 -426 1306 -1070 1306 -1848 0
-651 -316 -1236 -935 -1728 -110 -87 -379 -269 -493 -332 -39 -22 -72 -44 -72
-48 0 -5 20 -59 44 -120 225 -571 216 -1233 -25 -1840 -173 -435 -505 -871
-925 -1215 l-101 -82 66 -133 c140 -280 202 -569 187 -877 -16 -321 -77 -577
-196 -825 -242 -503 -689 -837 -1395 -1042 -189 -54 -426 -107 -823 -183 -819
-157 -1084 -238 -1339 -406 -265 -175 -383 -409 -414 -821 -6 -81 -12 -149
-14 -151 -1 -1 -241 -5 -534 -9 l-531 -6 0 70 c0 111 19 317 40 448 73 436
242 788 515 1073 382 399 868 617 1770 796 127 25 347 68 490 96 453 89 687
156 890 255 305 148 434 339 464 688 14 163 -5 288 -62 402 -33 68 -32 68
-105 31 -90 -45 -370 -163 -512 -216 -899 -333 -1861 -530 -2975 -611 -241
-17 -909 -23 -1165 -10 -366 19 -596 42 -910 92 -1120 179 -1799 589 -1974
1193 -88 301 -33 638 147 908 337 505 1097 829 2257 962 563 65 1315 73 1955
20 962 -79 1848 -270 2555 -551 266 -105 574 -259 763 -380 37 -24 72 -43 78
-43 27 0 261 193 384 316 267 269 425 544 497 865 20 91 23 130 23 314 0 187
-3 220 -24 305 -19 77 -74 236 -86 248 -1 1 -90 -27 -196 -62 -1348 -452
-3141 -706 -4979 -706 -1366 0 -2514 139 -3320 402 -724 235 -1132 562 -1266
1013 -38 130 -44 319 -15 463 145 704 930 1199 2346 1481 966 192 2194 257
3325 176 1874 -135 3381 -604 4279 -1332 73 -59 138 -112 145 -116 12 -9 165
71 316 166 230 144 462 346 578 502 70 95 135 223 168 331 23 76 27 108 27
219 1 155 -13 220 -77 350 -211 429 -929 774 -2026 974 -545 100 -1091 158
-1905 201 -318 18 -1528 24 -1970 11 -1699 -51 -3644 -222 -5450 -480 -148
-22 -272 -38 -273 -36 -2 2 -41 239 -86 527 l-83 523 26 8 c37 10 669 98 1096
151 1775 222 3547 358 5015 385 598 11 630 11 1130 1z"/>
<path d="M14922 19725 c-175 -49 -321 -180 -453 -407 -167 -285 -310 -746
-398 -1283 -33 -197 -56 -374 -50 -380 2 -2 366 -8 809 -14 443 -6 876 -13
963 -16 l159 -6 -7 93 c-72 1027 -298 1717 -635 1941 -113 75 -272 105 -388
72z"/>
<path d="M11575 19706 c-22 -7 -63 -24 -91 -39 -297 -152 -521 -659 -629
-1429 -28 -204 -55 -476 -55 -565 l0 -63 103 1 c298 1 1818 26 1821 30 6 6
-21 203 -54 402 -131 776 -360 1338 -636 1557 -34 28 -93 65 -131 82 -61 29
-79 32 -178 35 -72 2 -124 -2 -150 -11z"/>
<path d="M12145 12149 c-1263 -43 -2390 -277 -2941 -609 -89 -55 -214 -162
-214 -186 0 -24 146 -115 284 -176 831 -366 2598 -527 4456 -408 852 55 1740
181 2482 351 248 57 589 147 601 158 4 4 -43 35 -105 68 -1038 558 -2773 863
-4563 802z"/>
<path d="M12190 8310 c-809 -40 -1485 -185 -1835 -392 -82 -49 -175 -133 -175
-159 0 -23 79 -92 164 -141 307 -180 841 -302 1571 -360 210 -16 944 -16 1185
0 767 54 1469 171 2105 353 159 46 470 146 499 161 16 9 7 16 -65 44 -112 46
-413 145 -569 188 -534 147 -1136 245 -1780 291 -262 19 -862 27 -1100 15z"/>
</g>
</svg>
